<svg id="visual" viewBox="0 0 960 540" width="960" height="540" xmlns="http://www.w3.org/2000/svg" xmlns:xlink="http://www.w3.org/1999/xlink" version="1.1"><rect x="0" y="0" width="960" height="540" fill="#092652"></rect><g fill="none" stroke="#2a5172" stroke-width="2"><circle r="11" cx="76" cy="380"></circle><circle r="-1" cx="324" cy="104"></circle><circle r="5" cx="208" cy="32"></circle><circle r="5" cx="750" cy="449"></circle><circle r="5" cx="950" cy="255"></circle><circle r="3" cx="413" cy="501"></circle><circle r="7" cx="105" cy="431"></circle><circle r="-2" cx="711" cy="430"></circle><circle r="-2" cx="364" cy="378"></circle><circle r="0" cx="128" cy="325"></circle><circle r="5" cx="652" cy="221"></circle><circle r="4" cx="811" cy="448"></circle><circle r="0" cx="929" cy="521"></circle><circle r="0" cx="794" cy="237"></circle><circle r="8" cx="709" cy="383"></circle><circle r="0" cx="392" cy="143"></circle><circle r="-1" cx="758" cy="478"></circle><circle r="3" cx="61" cy="502"></circle><circle r="8" cx="713" cy="477"></circle><circle r="2" cx="503" cy="204"></circle><circle r="1" cx="192" cy="151"></circle><circle r="2" cx="284" cy="308"></circle><circle r="-2" cx="165" cy="24"></circle><circle r="0" cx="774" cy="422"></circle><circle r="5" cx="864" cy="183"></circle><circle r="7" cx="513" cy="391"></circle><circle r="1" cx="214" cy="129"></circle><circle r="8" cx="839" cy="41"></circle><circle r="8" cx="444" cy="395"></circle><circle r="2" cx="337" cy="312"></circle><circle r="4" cx="569" cy="91"></circle><circle r="2" cx="593" cy="518"></circle><circle r="-1" cx="606" cy="94"></circle><circle r="9" cx="893" cy="19"></circle><circle r="9" cx="576" cy="407"></circle><circle r="5" cx="511" cy="317"></circle><circle r="5" cx="27" cy="119"></circle><circle r="9" cx="97" cy="484"></circle><circle r="7" cx="230" cy="210"></circle><circle r="9" cx="955" cy="216"></circle><circle r="0" cx="354" cy="38"></circle><circle r="-1" cx="666" cy="173"></circle><circle r="0" cx="950" cy="36"></circle><circle r="3" cx="223" cy="320"></circle><circle r="9" cx="957" cy="411"></circle><circle r="6" cx="67" cy="208"></circle><circle r="2" cx="245" cy="294"></circle><circle r="5" cx="258" cy="150"></circle><circle r="0" cx="764" cy="232"></circle><circle r="3" cx="893" cy="382"></circle><circle r="4" cx="97" cy="267"></circle><circle r="-1" cx="830" cy="262"></circle><circle r="9" cx="767" cy="166"></circle><circle r="-1" cx="748" cy="327"></circle><circle r="8" cx="835" cy="339"></circle><circle r="2" cx="542" cy="499"></circle><circle r="7" cx="822" cy="137"></circle><circle r="2" cx="42" cy="23"></circle><circle r="5" cx="650" cy="461"></circle><circle r="-2" cx="587" cy="351"></circle><circle r="2" cx="803" cy="184"></circle><circle r="5" cx="792" cy="20"></circle><circle r="5" cx="393" cy="206"></circle><circle r="7" cx="396" cy="256"></circle><circle r="2" cx="492" cy="251"></circle><circle r="0" cx="391" cy="434"></circle><circle r="0" cx="431" cy="457"></circle><circle r="-1" cx="260" cy="353"></circle><circle r="-2" cx="761" cy="113"></circle><circle r="-2" cx="933" cy="292"></circle><circle r="9" cx="483" cy="328"></circle><circle r="3" cx="212" cy="433"></circle><circle r="9" cx="337" cy="280"></circle><circle r="9" cx="215" cy="367"></circle><circle r="8" cx="155" cy="308"></circle><circle r="9" cx="553" cy="538"></circle><circle r="6" cx="461" cy="177"></circle><circle r="3" cx="82" cy="158"></circle><circle r="4" cx="9" cy="332"></circle><circle r="4" cx="99" cy="52"></circle><circle r="5" cx="295" cy="18"></circle><circle r="0" cx="791" cy="322"></circle><circle r="0" cx="470" cy="26"></circle><circle r="7" cx="588" cy="51"></circle><circle r="5" cx="79" cy="453"></circle><circle r="2" cx="667" cy="342"></circle><circle r="8" cx="522" cy="86"></circle><circle r="0" cx="793" cy="355"></circle><circle r="6" cx="345" cy="437"></circle><circle r="4" cx="419" cy="287"></circle><circle r="4" cx="823" cy="522"></circle><circle r="5" cx="631" cy="239"></circle><circle r="8" cx="714" cy="161"></circle><circle r="3" cx="920" cy="29"></circle><circle r="5" cx="21" cy="193"></circle><circle r="9" cx="743" cy="202"></circle><circle r="-1" cx="275" cy="2"></circle><circle r="3" cx="216" cy="280"></circle><circle r="-1" cx="96" cy="406"></circle><circle r="8" cx="264" cy="99"></circle><circle r="7" cx="653" cy="382"></circle><circle r="2" cx="267" cy="440"></circle><circle r="6" cx="688" cy="208"></circle><circle r="4" cx="3" cy="377"></circle><circle r="8" cx="281" cy="128"></circle><circle r="-2" cx="524" cy="355"></circle><circle r="4" cx="625" cy="482"></circle><circle r="-2" cx="957" cy="532"></circle><circle r="9" cx="495" cy="17"></circle><circle r="9" cx="861" cy="296"></circle><circle r="5" cx="111" cy="305"></circle><circle r="2" cx="305" cy="245"></circle><circle r="6" cx="346" cy="247"></circle><circle r="3" cx="673" cy="315"></circle><circle r="2" cx="463" cy="376"></circle><circle r="4" cx="91" cy="324"></circle><circle r="0" cx="783" cy="261"></circle><circle r="-1" cx="471" cy="452"></circle><circle r="6" cx="930" cy="115"></circle><circle r="1" cx="441" cy="156"></circle><circle r="8" cx="160" cy="121"></circle><circle r="-1" cx="905" cy="295"></circle><circle r="0" cx="244" cy="532"></circle><circle r="2" cx="456" cy="101"></circle><circle r="7" cx="264" cy="212"></circle><circle r="0" cx="607" cy="307"></circle><circle r="4" cx="680" cy="502"></circle><circle r="-1" cx="117" cy="527"></circle><circle r="7" cx="482" cy="70"></circle><circle r="9" cx="900" cy="60"></circle><circle r="7" cx="92" cy="237"></circle><circle r="4" cx="383" cy="178"></circle><circle r="0" cx="297" cy="401"></circle><circle r="6" cx="38" cy="234"></circle><circle r="2" cx="185" cy="237"></circle><circle r="2" cx="202" cy="185"></circle><circle r="8" cx="321" cy="448"></circle><circle r="6" cx="640" cy="515"></circle><circle r="4" cx="873" cy="344"></circle><circle r="0" cx="777" cy="76"></circle><circle r="7" cx="248" cy="261"></circle><circle r="1" cx="122" cy="477"></circle><circle r="6" cx="322" cy="368"></circle><circle r="4" cx="864" cy="518"></circle><circle r="5" cx="267" cy="28"></circle><circle r="8" cx="934" cy="181"></circle><circle r="-1" cx="136" cy="66"></circle><circle r="2" cx="693" cy="32"></circle><circle r="0" cx="362" cy="8"></circle><circle r="1" cx="25" cy="62"></circle><circle r="2" cx="926" cy="387"></circle><circle r="5" cx="779" cy="533"></circle><circle r="9" cx="428" cy="105"></circle><circle r="6" cx="546" cy="213"></circle><circle r="0" cx="367" cy="342"></circle><circle r="-2" cx="823" cy="303"></circle><circle r="6" cx="452" cy="318"></circle><circle r="0" cx="65" cy="529"></circle><circle r="8" cx="295" cy="66"></circle><circle r="7" cx="664" cy="415"></circle><circle r="2" cx="479" cy="478"></circle><circle r="-2" cx="122" cy="252"></circle><circle r="2" cx="131" cy="167"></circle><circle r="4" cx="285" cy="174"></circle><circle r="-2" cx="720" cy="508"></circle><circle r="2" cx="583" cy="181"></circle><circle r="7" cx="698" cy="105"></circle><circle r="5" cx="933" cy="155"></circle><circle r="-1" cx="496" cy="528"></circle><circle r="1" cx="176" cy="374"></circle><circle r="2" cx="857" cy="116"></circle><circle r="5" cx="224" cy="239"></circle><circle r="3" cx="931" cy="424"></circle><circle r="3" cx="624" cy="127"></circle><circle r="0" cx="615" cy="212"></circle><circle r="-2" cx="401" cy="63"></circle><circle r="3" cx="875" cy="138"></circle><circle r="4" cx="723" cy="90"></circle><circle r="6" cx="542" cy="164"></circle><circle r="3" cx="286" cy="338"></circle><circle r="0" cx="64" cy="354"></circle><circle r="7" cx="172" cy="89"></circle><circle r="1" cx="937" cy="495"></circle><circle r="9" cx="148" cy="424"></circle><circle r="-1" cx="152" cy="356"></circle><circle r="-1" cx="147" cy="224"></circle><circle r="9" cx="259" cy="385"></circle><circle r="1" cx="703" cy="250"></circle><circle r="0" cx="668" cy="257"></circle><circle r="3" cx="789" cy="145"></circle><circle r="1" cx="884" cy="104"></circle><circle r="3" cx="53" cy="468"></circle><circle r="8" cx="289" cy="495"></circle><circle r="3" cx="710" cy="284"></circle><circle r="7" cx="281" cy="373"></circle><circle r="4" cx="595" cy="1"></circle><circle r="6" cx="492" cy="139"></circle><circle r="9" cx="680" cy="61"></circle><circle r="8" cx="242" cy="127"></circle><circle r="8" cx="925" cy="338"></circle><circle r="4" cx="818" cy="493"></circle><circle r="3" cx="639" cy="310"></circle><circle r="8" cx="819" cy="101"></circle><circle r="1" cx="567" cy="154"></circle><circle r="1" cx="3" cy="80"></circle><circle r="8" cx="877" cy="208"></circle><circle r="-1" cx="638" cy="188"></circle><circle r="6" cx="940" cy="76"></circle><circle r="8" cx="54" cy="180"></circle><circle r="1" cx="872" cy="408"></circle><circle r="8" cx="958" cy="375"></circle><circle r="9" cx="37" cy="386"></circle><circle r="2" cx="900" cy="226"></circle><circle r="8" cx="459" cy="57"></circle><circle r="1" cx="208" cy="73"></circle><circle r="6" cx="673" cy="11"></circle><circle r="8" cx="352" cy="200"></circle><circle r="3" cx="9" cy="153"></circle><circle r="9" cx="326" cy="140"></circle><circle r="-2" cx="528" cy="452"></circle><circle r="2" cx="733" cy="25"></circle><circle r="1" cx="735" cy="239"></circle><circle r="4" cx="96" cy="14"></circle><circle r="-1" cx="62" cy="318"></circle><circle r="-2" cx="490" cy="428"></circle><circle r="5" cx="825" cy="165"></circle><circle r="5" cx="717" cy="60"></circle><circle r="-1" cx="817" cy="384"></circle><circle r="3" cx="24" cy="429"></circle><circle r="7" cx="625" cy="427"></circle><circle r="-2" cx="914" cy="95"></circle><circle r="2" cx="396" cy="12"></circle><circle r="9" cx="662" cy="534"></circle><circle r="7" cx="65" cy="67"></circle><circle r="5" cx="730" cy="413"></circle><circle r="6" cx="872" cy="265"></circle><circle r="7" cx="139" cy="139"></circle><circle r="2" cx="18" cy="264"></circle><circle r="3" cx="463" cy="529"></circle><circle r="0" cx="10" cy="13"></circle><circle r="0" cx="66" cy="423"></circle><circle r="2" cx="526" cy="272"></circle><circle r="9" cx="18" cy="531"></circle><circle r="5" cx="153" cy="452"></circle><circle r="5" cx="367" cy="74"></circle><circle r="3" cx="235" cy="65"></circle><circle r="0" cx="325" cy="34"></circle><circle r="9" cx="423" cy="29"></circle><circle r="5" cx="116" cy="385"></circle><circle r="1" cx="9" cy="465"></circle><circle r="0" cx="233" cy="157"></circle><circle r="8" cx="841" cy="76"></circle><circle r="6" cx="876" cy="476"></circle><circle r="3" cx="628" cy="43"></circle><circle r="6" cx="645" cy="109"></circle><circle r="7" cx="543" cy="103"></circle><circle r="6" cx="754" cy="360"></circle><circle r="2" cx="891" cy="320"></circle><circle r="3" cx="190" cy="502"></circle><circle r="4" cx="290" cy="200"></circle><circle r="6" cx="356" cy="107"></circle><circle r="6" cx="389" cy="533"></circle><circle r="5" cx="832" cy="462"></circle><circle r="9" cx="43" cy="335"></circle><circle r="4" cx="846" cy="441"></circle><circle r="7" cx="132" cy="38"></circle><circle r="2" cx="451" cy="346"></circle><circle r="5" cx="421" cy="360"></circle><circle r="1" cx="790" cy="467"></circle><circle r="3" cx="565" cy="472"></circle><circle r="9" cx="419" cy="527"></circle><circle r="-2" cx="163" cy="477"></circle><circle r="6" cx="775" cy="203"></circle><circle r="5" cx="515" cy="40"></circle><circle r="-1" cx="282" cy="537"></circle><circle r="7" cx="549" cy="288"></circle><circle r="9" cx="638" cy="274"></circle><circle r="0" cx="340" cy="407"></circle><circle r="8" cx="448" cy="485"></circle><circle r="6" cx="595" cy="430"></circle><circle r="-2" cx="443" cy="216"></circle><circle r="3" cx="605" cy="241"></circle><circle r="7" cx="231" cy="406"></circle><circle r="2" cx="175" cy="431"></circle><circle r="8" cx="902" cy="122"></circle><circle r="-1" cx="358" cy="524"></circle><circle r="2" cx="737" cy="274"></circle><circle r="0" cx="460" cy="247"></circle><circle r="7" cx="177" cy="344"></circle><circle r="0" cx="542" cy="418"></circle><circle r="7" cx="551" cy="48"></circle><circle r="7" cx="621" cy="375"></circle><circle r="7" cx="906" cy="449"></circle><circle r="5" cx="223" cy="492"></circle><circle r="2" cx="182" cy="299"></circle><circle r="1" cx="416" cy="414"></circle><circle r="4" cx="408" cy="167"></circle><circle r="1" cx="82" cy="129"></circle><circle r="2" cx="391" cy="367"></circle><circle r="4" cx="577" cy="276"></circle><circle r="0" cx="9" cy="226"></circle><circle r="-1" cx="495" cy="167"></circle><circle r="7" cx="892" cy="424"></circle><circle r="4" cx="848" cy="491"></circle><circle r="9" cx="686" cy="400"></circle><circle r="6" cx="790" cy="381"></circle><circle r="3" cx="193" cy="113"></circle><circle r="0" cx="209" cy="538"></circle><circle r="4" cx="840" cy="211"></circle><circle r="-1" cx="163" cy="202"></circle><circle r="8" cx="851" cy="240"></circle><circle r="8" cx="321" cy="176"></circle><circle r="2" cx="290" cy="103"></circle><circle r="9" cx="351" cy="484"></circle><circle r="3" cx="549" cy="392"></circle><circle r="1" cx="645" cy="17"></circle><circle r="9" cx="928" cy="237"></circle><circle r="5" cx="121" cy="204"></circle><circle r="6" cx="684" cy="456"></circle><circle r="0" cx="309" cy="520"></circle><circle r="-2" cx="66" cy="104"></circle><circle r="-2" cx="389" cy="463"></circle><circle r="1" cx="606" cy="161"></circle><circle r="1" cx="725" cy="118"></circle><circle r="-1" cx="328" cy="3"></circle><circle r="0" cx="251" cy="485"></circle><circle r="6" cx="632" cy="342"></circle><circle r="4" cx="569" cy="29"></circle><circle r="-1" cx="19" cy="296"></circle><circle r="4" cx="751" cy="88"></circle><circle r="4" cx="549" cy="244"></circle><circle r="2" cx="128" cy="281"></circle><circle r="2" cx="955" cy="314"></circle><circle r="2" cx="361" cy="135"></circle><circle r="-1" cx="8" cy="40"></circle><circle r="8" cx="478" cy="354"></circle><circle r="5" cx="661" cy="142"></circle><circle r="8" cx="792" cy="508"></circle><circle r="3" cx="760" cy="391"></circle><circle r="3" cx="331" cy="62"></circle><circle r="-2" cx="742" cy="146"></circle><circle r="0" cx="477" cy="292"></circle><circle r="-2" cx="538" cy="320"></circle><circle r="4" cx="509" cy="231"></circle><circle r="-2" cx="322" cy="474"></circle><circle r="4" cx="165" cy="52"></circle><circle r="4" cx="763" cy="11"></circle><circle r="-1" cx="585" cy="321"></circle><circle r="-1" cx="757" cy="54"></circle><circle r="-1" cx="554" cy="8"></circle><circle r="5" cx="717" cy="345"></circle><circle r="-1" cx="942" cy="464"></circle><circle r="5" cx="444" cy="128"></circle><circle r="1" cx="744" cy="532"></circle><circle r="3" cx="554" cy="348"></circle><circle r="4" cx="632" cy="72"></circle><circle r="-2" cx="348" cy="159"></circle><circle r="5" cx="120" cy="114"></circle><circle r="9" cx="828" cy="16"></circle><circle r="2" cx="688" cy="537"></circle><circle r="-1" cx="369" cy="273"></circle><circle r="5" cx="164" cy="521"></circle><circle r="9" cx="61" cy="290"></circle><circle r="-1" cx="711" cy="197"></circle><circle r="8" cx="264" cy="71"></circle><circle r="6" cx="136" cy="499"></circle><circle r="0" cx="417" cy="232"></circle><circle r="9" cx="191" cy="266"></circle><circle r="6" cx="799" cy="61"></circle><circle r="2" cx="285" cy="459"></circle><circle r="0" cx="197" cy="461"></circle><circle r="2" cx="580" cy="381"></circle><circle r="-1" cx="381" cy="101"></circle><circle r="-1" cx="296" cy="280"></circle><circle r="0" cx="4" cy="403"></circle><circle r="9" cx="862" cy="15"></circle><circle r="3" cx="122" cy="13"></circle><circle r="2" cx="548" cy="134"></circle><circle r="6" cx="581" cy="215"></circle><circle r="8" cx="955" cy="139"></circle><circle r="4" cx="96" cy="83"></circle><circle r="-1" cx="207" cy="395"></circle><circle r="2" cx="449" cy="431"></circle><circle r="6" cx="858" cy="369"></circle><circle r="9" cx="907" cy="504"></circle><circle r="6" cx="716" cy="315"></circle><circle r="9" cx="610" cy="267"></circle><circle r="5" cx="522" cy="13"></circle><circle r="2" cx="876" cy="45"></circle><circle r="4" cx="401" cy="337"></circle><circle r="9" cx="331" cy="536"></circle><circle r="2" cx="224" cy="93"></circle><circle r="5" cx="821" cy="229"></circle><circle r="-2" cx="691" cy="147"></circle><circle r="6" cx="14" cy="493"></circle><circle r="7" cx="266" cy="240"></circle><circle r="5" cx="899" cy="166"></circle><circle r="9" cx="296" cy="430"></circle><circle r="7" cx="768" cy="297"></circle><circle r="2" cx="64" cy="8"></circle><circle r="9" cx="789" cy="110"></circle><circle r="2" cx="472" cy="205"></circle><circle r="8" cx="599" cy="488"></circle><circle r="5" cx="902" cy="198"></circle><circle r="2" cx="583" cy="117"></circle><circle r="7" cx="155" cy="270"></circle><circle r="2" cx="504" cy="109"></circle><circle r="-1" cx="175" cy="170"></circle><circle r="6" cx="337" cy="346"></circle><circle r="7" cx="106" cy="351"></circle><circle r="3" cx="902" cy="532"></circle><circle r="-1" cx="796" cy="291"></circle><circle r="1" cx="380" cy="44"></circle><circle r="0" cx="765" cy="507"></circle><circle r="0" cx="634" cy="154"></circle><circle r="4" cx="450" cy="291"></circle><circle r="3" cx="75" cy="43"></circle><circle r="0" cx="48" cy="263"></circle><circle r="-2" cx="565" cy="512"></circle><circle r="-2" cx="520" cy="479"></circle><circle r="-1" cx="383" cy="508"></circle><circle r="6" cx="899" cy="354"></circle><circle r="6" cx="254" cy="320"></circle><circle r="5" cx="383" cy="313"></circle><circle r="2" cx="845" cy="393"></circle><circle r="9" cx="567" cy="438"></circle><circle r="4" cx="233" cy="19"></circle><circle r="7" cx="243" cy="186"></circle><circle r="-1" cx="417" cy="136"></circle><circle r="3" cx="25" cy="357"></circle><circle r="-1" cx="916" cy="479"></circle><circle r="-2" cx="419" cy="205"></circle><circle r="8" cx="148" cy="383"></circle><circle r="0" cx="189" cy="3"></circle><circle r="2" cx="308" cy="321"></circle><circle r="8" cx="468" cy="409"></circle><circle r="3" cx="901" cy="258"></circle><circle r="9" cx="535" cy="190"></circle><circle r="8" cx="687" cy="367"></circle><circle r="7" cx="438" cy="6"></circle><circle r="8" cx="139" cy="95"></circle><circle r="-1" cx="401" cy="391"></circle><circle r="-1" cx="590" cy="460"></circle><circle r="3" cx="618" cy="14"></circle><circle r="4" cx="197" cy="325"></circle><circle r="6" cx="880" cy="449"></circle><circle r="8" cx="678" cy="88"></circle><circle r="6" cx="105" cy="171"></circle><circle r="5" cx="37" cy="148"></circle><circle r="5" cx="671" cy="283"></circle><circle r="7" cx="122" cy="411"></circle><circle r="9" cx="809" cy="420"></circle><circle r="7" cx="709" cy="12"></circle><circle r="2" cx="927" cy="55"></circle><circle r="2" cx="373" cy="237"></circle><circle r="8" cx="430" cy="78"></circle><circle r="0" cx="433" cy="183"></circle><circle r="3" cx="427" cy="260"></circle><circle r="7" cx="654" cy="54"></circle><circle r="6" cx="260" cy="512"></circle><circle r="9" cx="516" cy="507"></circle><circle r="3" cx="927" cy="1"></circle><circle r="9" cx="517" cy="152"></circle><circle r="4" cx="241" cy="434"></circle><circle r="6" cx="378" cy="409"></circle><circle r="1" cx="36" cy="92"></circle><circle r="-1" cx="654" cy="492"></circle><circle r="0" cx="847" cy="149"></circle><circle r="-1" cx="176" cy="404"></circle><circle r="0" cx="35" cy="509"></circle><circle r="4" cx="236" cy="464"></circle><circle r="4" cx="328" cy="208"></circle><circle r="-1" cx="603" cy="396"></circle><circle r="6" cx="107" cy="141"></circle><circle r="7" cx="676" cy="120"></circle><circle r="3" cx="928" cy="211"></circle><circle r="7" cx="93" cy="208"></circle><circle r="5" cx="956" cy="9"></circle><circle r="9" cx="627" cy="537"></circle><circle r="3" cx="854" cy="321"></circle><circle r="8" cx="424" cy="323"></circle><circle r="-1" cx="956" cy="110"></circle><circle r="0" cx="337" cy="508"></circle><circle r="4" cx="619" cy="453"></circle><circle r="-1" cx="94" cy="513"></circle><circle r="5" cx="270" cy="409"></circle><circle r="2" cx="845" cy="537"></circle><circle r="-2" cx="953" cy="440"></circle><circle r="-2" cx="502" cy="286"></circle><circle r="1" cx="868" cy="70"></circle><circle r="8" cx="683" cy="233"></circle><circle r="7" cx="361" cy="458"></circle><circle r="2" cx="488" cy="391"></circle><circle r="2" cx="516" cy="417"></circle><circle r="0" cx="466" cy="145"></circle><circle r="6" cx="957" cy="349"></circle><circle r="7" cx="501" cy="457"></circle><circle r="4" cx="709" cy="224"></circle><circle r="-2" cx="734" cy="377"></circle><circle r="1" cx="475" cy="118"></circle><circle r="5" cx="487" cy="504"></circle><circle r="1" cx="128" cy="445"></circle><circle r="1" cx="737" cy="174"></circle><circle r="9" cx="300" cy="147"></circle><circle r="-2" cx="957" cy="284"></circle><circle r="1" cx="149" cy="3"></circle><circle r="3" cx="547" cy="73"></circle><circle r="0" cx="694" cy="333"></circle><circle r="4" cx="204" cy="217"></circle><circle r="-1" cx="1" cy="115"></circle><circle r="7" cx="500" cy="368"></circle><circle r="7" cx="523" cy="536"></circle><circle r="-1" cx="56" cy="128"></circle><circle r="0" cx="738" cy="301"></circle><circle r="3" cx="577" cy="244"></circle><circle r="8" cx="48" cy="442"></circle><circle r="-1" cx="877" cy="238"></circle><circle r="7" cx="234" cy="344"></circle><circle r="7" cx="406" cy="90"></circle><circle r="1" cx="66" cy="241"></circle><circle r="4" cx="268" cy="278"></circle></g></svg>