<svg id="visual" viewBox="0 0 900 600" width="900" height="600" xmlns="http://www.w3.org/2000/svg" xmlns:xlink="http://www.w3.org/1999/xlink" version="1.1"><rect x="0" y="0" width="900" height="600" fill="#092652"></rect><g fill="#2a5172"><circle r="14" cx="657" cy="270"></circle><circle r="1" cx="62" cy="175"></circle><circle r="7" cx="270" cy="501"></circle><circle r="9" cx="58" cy="377"></circle><circle r="11" cx="151" cy="497"></circle><circle r="7" cx="508" cy="372"></circle><circle r="10" cx="354" cy="67"></circle><circle r="6" cx="151" cy="125"></circle><circle r="1" cx="674" cy="546"></circle><circle r="3" cx="432" cy="319"></circle><circle r="11" cx="239" cy="202"></circle><circle r="3" cx="203" cy="279"></circle><circle r="0" cx="842" cy="208"></circle><circle r="11" cx="268" cy="594"></circle><circle r="0" cx="113" cy="226"></circle><circle r="0" cx="870" cy="111"></circle><circle r="4" cx="806" cy="246"></circle><circle r="4" cx="509" cy="21"></circle><circle r="0" cx="765" cy="519"></circle><circle r="11" cx="643" cy="351"></circle><circle r="7" cx="446" cy="161"></circle><circle r="5" cx="464" cy="465"></circle><circle r="7" cx="553" cy="450"></circle><circle r="1" cx="710" cy="155"></circle><circle r="3" cx="204" cy="74"></circle><circle r="11" cx="328" cy="560"></circle><circle r="4" cx="105" cy="576"></circle><circle r="10" cx="664" cy="99"></circle><circle r="11" cx="768" cy="7"></circle><circle r="3" cx="190" cy="32"></circle><circle r="2" cx="385" cy="163"></circle><circle r="4" cx="100" cy="502"></circle><circle r="12" cx="729" cy="407"></circle><circle r="1" cx="546" cy="136"></circle><circle r="10" cx="108" cy="42"></circle><circle r="9" cx="364" cy="430"></circle><circle r="0" cx="758" cy="477"></circle><circle r="1" cx="152" cy="154"></circle><circle r="2" cx="133" cy="473"></circle><circle r="7" cx="207" cy="230"></circle><circle r="4" cx="759" cy="81"></circle><circle r="3" cx="707" cy="363"></circle><circle r="8" cx="279" cy="353"></circle><circle r="9" cx="186" cy="571"></circle><circle r="10" cx="419" cy="117"></circle><circle r="10" cx="357" cy="23"></circle><circle r="1" cx="596" cy="314"></circle><circle r="12" cx="649" cy="199"></circle><circle r="3" cx="790" cy="384"></circle><circle r="4" cx="726" cy="561"></circle><circle r="0" cx="75" cy="487"></circle><circle r="10" cx="177" cy="281"></circle><circle r="12" cx="295" cy="253"></circle><circle r="7" cx="615" cy="423"></circle><circle r="10" cx="600" cy="566"></circle><circle r="8" cx="130" cy="170"></circle><circle r="3" cx="402" cy="27"></circle><circle r="7" cx="177" cy="131"></circle><circle r="4" cx="823" cy="125"></circle><circle r="12" cx="893" cy="180"></circle><circle r="2" cx="7" cy="210"></circle><circle r="6" cx="529" cy="486"></circle><circle r="0" cx="712" cy="61"></circle><circle r="6" cx="201" cy="466"></circle><circle r="6" cx="775" cy="344"></circle><circle r="3" cx="65" cy="70"></circle><circle r="9" cx="510" cy="48"></circle><circle r="6" cx="490" cy="593"></circle><circle r="2" cx="301" cy="367"></circle><circle r="3" cx="876" cy="446"></circle><circle r="8" cx="479" cy="230"></circle><circle r="1" cx="823" cy="570"></circle><circle r="2" cx="746" cy="311"></circle><circle r="10" cx="12" cy="70"></circle><circle r="3" cx="165" cy="326"></circle><circle r="10" cx="150" cy="411"></circle><circle r="8" cx="866" cy="76"></circle><circle r="3" cx="869" cy="490"></circle><circle r="0" cx="600" cy="14"></circle><circle r="4" cx="706" cy="118"></circle><circle r="5" cx="612" cy="530"></circle><circle r="4" cx="451" cy="415"></circle><circle r="8" cx="866" cy="337"></circle><circle r="9" cx="299" cy="60"></circle><circle r="10" cx="565" cy="39"></circle><circle r="10" cx="335" cy="169"></circle><circle r="3" cx="43" cy="336"></circle><circle r="7" cx="429" cy="64"></circle><circle r="10" cx="366" cy="194"></circle><circle r="2" cx="60" cy="572"></circle><circle r="10" cx="226" cy="167"></circle><circle r="11" cx="52" cy="126"></circle><circle r="12" cx="328" cy="258"></circle><circle r="3" cx="225" cy="262"></circle><circle r="8" cx="225" cy="55"></circle><circle r="3" cx="555" cy="377"></circle><circle r="10" cx="317" cy="485"></circle><circle r="12" cx="368" cy="127"></circle><circle r="0" cx="244" cy="27"></circle><circle r="10" cx="857" cy="540"></circle><circle r="5" cx="570" cy="351"></circle><circle r="2" cx="120" cy="308"></circle><circle r="6" cx="153" cy="226"></circle><circle r="6" cx="823" cy="46"></circle><circle r="1" cx="304" cy="291"></circle><circle r="5" cx="744" cy="164"></circle><circle r="5" cx="590" cy="91"></circle><circle r="12" cx="568" cy="232"></circle><circle r="9" cx="567" cy="309"></circle><circle r="7" cx="252" cy="391"></circle><circle r="11" cx="76" cy="431"></circle><circle r="12" cx="281" cy="224"></circle><circle r="3" cx="315" cy="337"></circle><circle r="0" cx="817" cy="514"></circle><circle r="1" cx="717" cy="18"></circle><circle r="8" cx="183" cy="502"></circle><circle r="6" cx="219" cy="365"></circle><circle r="3" cx="438" cy="491"></circle><circle r="7" cx="393" cy="108"></circle><circle r="4" cx="126" cy="358"></circle><circle r="2" cx="196" cy="426"></circle><circle r="11" cx="789" cy="549"></circle><circle r="5" cx="329" cy="50"></circle><circle r="11" cx="718" cy="478"></circle><circle r="5" cx="669" cy="587"></circle><circle r="11" cx="196" cy="153"></circle><circle r="1" cx="891" cy="597"></circle><circle r="7" cx="343" cy="209"></circle><circle r="6" cx="153" cy="198"></circle><circle r="2" cx="30" cy="286"></circle><circle r="6" cx="730" cy="136"></circle><circle r="9" cx="742" cy="369"></circle><circle r="6" cx="843" cy="517"></circle><circle r="12" cx="798" cy="300"></circle><circle r="1" cx="282" cy="15"></circle><circle r="2" cx="790" cy="56"></circle><circle r="11" cx="807" cy="362"></circle><circle r="6" cx="466" cy="497"></circle><circle r="3" cx="892" cy="269"></circle><circle r="11" cx="134" cy="594"></circle><circle r="8" cx="724" cy="265"></circle><circle r="8" cx="320" cy="92"></circle><circle r="5" cx="536" cy="94"></circle><circle r="4" cx="354" cy="466"></circle><circle r="8" cx="650" cy="482"></circle><circle r="5" cx="150" cy="267"></circle><circle r="0" cx="646" cy="231"></circle><circle r="1" cx="102" cy="461"></circle><circle r="7" cx="467" cy="578"></circle><circle r="5" cx="14" cy="169"></circle><circle r="12" cx="561" cy="535"></circle><circle r="8" cx="404" cy="512"></circle><circle r="7" cx="494" cy="475"></circle><circle r="1" cx="801" cy="8"></circle><circle r="12" cx="49" cy="479"></circle><circle r="10" cx="584" cy="510"></circle><circle r="6" cx="87" cy="376"></circle><circle r="2" cx="254" cy="68"></circle><circle r="12" cx="362" cy="257"></circle><circle r="10" cx="238" cy="126"></circle><circle r="0" cx="538" cy="53"></circle><circle r="2" cx="488" cy="132"></circle><circle r="4" cx="774" cy="595"></circle><circle r="4" cx="789" cy="169"></circle><circle r="6" cx="199" cy="102"></circle><circle r="4" cx="498" cy="557"></circle><circle r="9" cx="329" cy="384"></circle><circle r="9" cx="414" cy="566"></circle><circle r="2" cx="235" cy="443"></circle><circle r="8" cx="286" cy="85"></circle><circle r="9" cx="93" cy="336"></circle><circle r="10" cx="156" cy="361"></circle><circle r="2" cx="604" cy="253"></circle><circle r="11" cx="818" cy="480"></circle><circle r="0" cx="292" cy="547"></circle><circle r="5" cx="817" cy="396"></circle><circle r="11" cx="534" cy="280"></circle><circle r="10" cx="476" cy="346"></circle><circle r="9" cx="690" cy="201"></circle><circle r="4" cx="680" cy="43"></circle><circle r="7" cx="62" cy="514"></circle><circle r="11" cx="886" cy="540"></circle><circle r="7" cx="822" cy="276"></circle><circle r="12" cx="240" cy="97"></circle><circle r="4" cx="229" cy="523"></circle><circle r="8" cx="652" cy="523"></circle><circle r="12" cx="16" cy="423"></circle><circle r="7" cx="395" cy="372"></circle><circle r="7" cx="169" cy="467"></circle><circle r="10" cx="287" cy="452"></circle><circle r="11" cx="646" cy="298"></circle><circle r="12" cx="694" cy="243"></circle><circle r="3" cx="432" cy="590"></circle><circle r="1" cx="684" cy="504"></circle><circle r="12" cx="417" cy="389"></circle><circle r="2" cx="83" cy="550"></circle><circle r="3" cx="703" cy="401"></circle><circle r="10" cx="774" cy="410"></circle><circle r="7" cx="894" cy="27"></circle><circle r="8" cx="315" cy="533"></circle><circle r="12" cx="545" cy="570"></circle><circle r="5" cx="183" cy="362"></circle><circle r="6" cx="379" cy="573"></circle><circle r="2" cx="109" cy="252"></circle><circle r="5" cx="4" cy="22"></circle><circle r="2" cx="721" cy="237"></circle><circle r="7" cx="597" cy="399"></circle><circle r="10" cx="118" cy="279"></circle><circle r="0" cx="875" cy="418"></circle><circle r="11" cx="718" cy="516"></circle><circle r="4" cx="819" cy="222"></circle><circle r="10" cx="791" cy="128"></circle><circle r="6" cx="749" cy="439"></circle><circle r="8" cx="596" cy="137"></circle><circle r="6" cx="651" cy="61"></circle><circle r="5" cx="652" cy="15"></circle><circle r="7" cx="679" cy="331"></circle><circle r="8" cx="175" cy="531"></circle><circle r="0" cx="625" cy="598"></circle><circle r="1" cx="450" cy="208"></circle><circle r="10" cx="29" cy="581"></circle><circle r="3" cx="838" cy="250"></circle><circle r="6" cx="142" cy="18"></circle><circle r="1" cx="135" cy="78"></circle><circle r="6" cx="469" cy="114"></circle><circle r="8" cx="43" cy="152"></circle><circle r="0" cx="104" cy="400"></circle><circle r="2" cx="597" cy="47"></circle><circle r="11" cx="418" cy="201"></circle><circle r="4" cx="366" cy="286"></circle><circle r="0" cx="872" cy="207"></circle><circle r="6" cx="565" cy="588"></circle><circle r="0" cx="150" cy="49"></circle><circle r="0" cx="554" cy="162"></circle><circle r="5" cx="180" cy="403"></circle><circle r="3" cx="609" cy="289"></circle><circle r="2" cx="695" cy="448"></circle><circle r="0" cx="26" cy="531"></circle><circle r="6" cx="601" cy="471"></circle><circle r="10" cx="392" cy="252"></circle><circle r="7" cx="604" cy="357"></circle><circle r="6" cx="496" cy="87"></circle><circle r="2" cx="707" cy="326"></circle><circle r="11" cx="278" cy="125"></circle><circle r="8" cx="626" cy="135"></circle><circle r="7" cx="730" cy="88"></circle><circle r="0" cx="105" cy="84"></circle><circle r="8" cx="504" cy="312"></circle><circle r="9" cx="417" cy="158"></circle><circle r="5" cx="466" cy="387"></circle><circle r="4" cx="264" cy="300"></circle><circle r="3" cx="294" cy="160"></circle><circle r="9" cx="788" cy="481"></circle><circle r="8" cx="72" cy="150"></circle><circle r="8" cx="60" cy="243"></circle><circle r="12" cx="892" cy="301"></circle><circle r="11" cx="315" cy="423"></circle><circle r="2" cx="790" cy="217"></circle><circle r="6" cx="442" cy="37"></circle><circle r="2" cx="50" cy="22"></circle><circle r="10" cx="773" cy="452"></circle><circle r="4" cx="101" cy="4"></circle><circle r="5" cx="508" cy="242"></circle><circle r="3" cx="847" cy="476"></circle><circle r="4" cx="624" cy="169"></circle><circle r="12" cx="59" cy="210"></circle><circle r="5" cx="242" cy="571"></circle><circle r="5" cx="263" cy="537"></circle><circle r="6" cx="584" cy="193"></circle><circle r="12" cx="447" cy="524"></circle><circle r="4" cx="135" cy="552"></circle><circle r="10" cx="729" cy="186"></circle><circle r="10" cx="209" cy="195"></circle><circle r="11" cx="344" cy="535"></circle><circle r="2" cx="73" cy="317"></circle><circle r="2" cx="7" cy="312"></circle><circle r="9" cx="544" cy="352"></circle><circle r="1" cx="48" cy="440"></circle><circle r="1" cx="679" cy="418"></circle><circle r="4" cx="768" cy="233"></circle><circle r="1" cx="11" cy="351"></circle><circle r="3" cx="208" cy="595"></circle><circle r="4" cx="436" cy="290"></circle><circle r="12" cx="515" cy="170"></circle><circle r="0" cx="866" cy="574"></circle><circle r="9" cx="846" cy="390"></circle><circle r="8" cx="359" cy="385"></circle><circle r="6" cx="389" cy="327"></circle><circle r="6" cx="48" cy="49"></circle><circle r="5" cx="691" cy="475"></circle><circle r="4" cx="286" cy="404"></circle><circle r="3" cx="475" cy="533"></circle><circle r="12" cx="345" cy="350"></circle><circle r="5" cx="715" cy="588"></circle><circle r="7" cx="26" cy="124"></circle><circle r="11" cx="849" cy="4"></circle><circle r="4" cx="222" cy="338"></circle><circle r="6" cx="892" cy="506"></circle><circle r="3" cx="799" cy="439"></circle><circle r="7" cx="609" cy="218"></circle><circle r="9" cx="757" cy="196"></circle><circle r="2" cx="893" cy="362"></circle><circle r="9" cx="117" cy="428"></circle><circle r="12" cx="825" cy="334"></circle><circle r="8" cx="894" cy="472"></circle><circle r="9" cx="331" cy="595"></circle><circle r="1" cx="122" cy="143"></circle><circle r="9" cx="785" cy="265"></circle><circle r="4" cx="2" cy="274"></circle><circle r="2" cx="518" cy="460"></circle><circle r="4" cx="852" cy="133"></circle><circle r="0" cx="485" cy="284"></circle><circle r="6" cx="621" cy="93"></circle><circle r="5" cx="88" cy="598"></circle><circle r="4" cx="82" cy="29"></circle><circle r="1" cx="368" cy="495"></circle><circle r="6" cx="892" cy="140"></circle><circle r="4" cx="174" cy="94"></circle><circle r="6" cx="835" cy="445"></circle><circle r="6" cx="274" cy="189"></circle><circle r="9" cx="19" cy="96"></circle><circle r="6" cx="872" cy="237"></circle><circle r="2" cx="754" cy="108"></circle><circle r="0" cx="505" cy="211"></circle><circle r="3" cx="469" cy="53"></circle><circle r="1" cx="462" cy="7"></circle><circle r="5" cx="563" cy="415"></circle><circle r="0" cx="424" cy="426"></circle><circle r="9" cx="769" cy="287"></circle><circle r="10" cx="164" cy="436"></circle><circle r="6" cx="257" cy="158"></circle><circle r="5" cx="650" cy="161"></circle><circle r="2" cx="22" cy="466"></circle><circle r="0" cx="436" cy="262"></circle><circle r="9" cx="721" cy="445"></circle><circle r="12" cx="672" cy="376"></circle><circle r="0" cx="749" cy="545"></circle><circle r="8" cx="634" cy="545"></circle><circle r="8" cx="265" cy="261"></circle><circle r="11" cx="492" cy="434"></circle><circle r="10" cx="785" cy="100"></circle><circle r="3" cx="400" cy="66"></circle><circle r="3" cx="860" cy="280"></circle><circle r="8" cx="34" cy="249"></circle><circle r="5" cx="819" cy="157"></circle><circle r="1" cx="754" cy="262"></circle><circle r="3" cx="583" cy="450"></circle><circle r="12" cx="418" cy="452"></circle><circle r="12" cx="374" cy="546"></circle><circle r="5" cx="17" cy="499"></circle><circle r="11" cx="861" cy="170"></circle><circle r="9" cx="103" cy="182"></circle><circle r="10" cx="227" cy="311"></circle><circle r="1" cx="426" cy="13"></circle><circle r="9" cx="236" cy="1"></circle><circle r="1" cx="288" cy="315"></circle><circle r="8" cx="19" cy="392"></circle><circle r="5" cx="174" cy="8"></circle><circle r="5" cx="488" cy="160"></circle><circle r="3" cx="824" cy="92"></circle><circle r="1" cx="116" cy="117"></circle><circle r="1" cx="532" cy="513"></circle><circle r="0" cx="226" cy="487"></circle><circle r="7" cx="341" cy="408"></circle><circle r="0" cx="135" cy="519"></circle><circle r="7" cx="402" cy="479"></circle><circle r="2" cx="456" cy="83"></circle><circle r="8" cx="258" cy="421"></circle><circle r="8" cx="355" cy="312"></circle><circle r="0" cx="439" cy="365"></circle><circle r="8" cx="309" cy="126"></circle><circle r="6" cx="335" cy="139"></circle><circle r="10" cx="647" cy="402"></circle><circle r="2" cx="393" cy="412"></circle><circle r="3" cx="684" cy="6"></circle><circle r="3" cx="540" cy="401"></circle><circle r="11" cx="180" cy="217"></circle><circle r="1" cx="742" cy="32"></circle><circle r="6" cx="554" cy="257"></circle><circle r="11" cx="177" cy="186"></circle><circle r="7" cx="581" cy="165"></circle><circle r="10" cx="530" cy="203"></circle><circle r="1" cx="250" cy="466"></circle><circle r="6" cx="554" cy="495"></circle><circle r="7" cx="340" cy="499"></circle><circle r="6" cx="676" cy="153"></circle><circle r="7" cx="392" cy="282"></circle><circle r="6" cx="683" cy="71"></circle><circle r="1" cx="197" cy="326"></circle><circle r="6" cx="390" cy="225"></circle><circle r="12" cx="274" cy="566"></circle><circle r="7" cx="360" cy="98"></circle><circle r="10" cx="490" cy="2"></circle><circle r="1" cx="75" cy="265"></circle><circle r="4" cx="876" cy="1"></circle><circle r="4" cx="623" cy="58"></circle><circle r="10" cx="460" cy="275"></circle><circle r="1" cx="626" cy="26"></circle><circle r="11" cx="502" cy="408"></circle><circle r="9" cx="467" cy="314"></circle><circle r="1" cx="530" cy="542"></circle><circle r="10" cx="204" cy="548"></circle><circle r="11" cx="651" cy="124"></circle><circle r="11" cx="620" cy="496"></circle><circle r="4" cx="749" cy="584"></circle><circle r="11" cx="773" cy="316"></circle><circle r="0" cx="31" cy="190"></circle><circle r="5" cx="636" cy="377"></circle><circle r="10" cx="652" cy="456"></circle><circle r="4" cx="249" cy="230"></circle><circle r="1" cx="87" cy="215"></circle><circle r="0" cx="135" cy="245"></circle><circle r="0" cx="87" cy="125"></circle><circle r="4" cx="564" cy="110"></circle><circle r="12" cx="6" cy="237"></circle><circle r="3" cx="894" cy="97"></circle><circle r="1" cx="307" cy="207"></circle><circle r="5" cx="683" cy="289"></circle><circle r="12" cx="504" cy="339"></circle><circle r="3" cx="564" cy="3"></circle><circle r="1" cx="336" cy="286"></circle><circle r="8" cx="91" cy="291"></circle><circle r="10" cx="410" cy="347"></circle><circle r="5" cx="57" cy="542"></circle><circle r="9" cx="818" cy="185"></circle><circle r="4" cx="372" cy="348"></circle><circle r="0" cx="843" cy="305"></circle><circle r="12" cx="13" cy="553"></circle><circle r="4" cx="444" cy="236"></circle><circle r="8" cx="799" cy="588"></circle><circle r="11" cx="695" cy="568"></circle><circle r="5" cx="38" cy="73"></circle><circle r="3" cx="451" cy="551"></circle><circle r="6" cx="253" cy="345"></circle><circle r="4" cx="417" cy="230"></circle><circle r="12" cx="319" cy="451"></circle><circle r="1" cx="887" cy="59"></circle><circle r="2" cx="301" cy="508"></circle><circle r="7" cx="863" cy="40"></circle><circle r="1" cx="378" cy="51"></circle><circle r="8" cx="145" cy="299"></circle><circle r="9" cx="517" cy="589"></circle><circle r="0" cx="112" cy="539"></circle><circle r="12" cx="465" cy="438"></circle><circle r="12" cx="544" cy="324"></circle><circle r="1" cx="502" cy="517"></circle><circle r="1" cx="519" cy="117"></circle><circle r="1" cx="337" cy="2"></circle><circle r="4" cx="132" cy="385"></circle><circle r="8" cx="587" cy="274"></circle><circle r="8" cx="618" cy="331"></circle><circle r="5" cx="898" cy="331"></circle><circle r="8" cx="541" cy="24"></circle><circle r="6" cx="314" cy="233"></circle><circle r="1" cx="842" cy="361"></circle><circle r="3" cx="874" cy="384"></circle><circle r="3" cx="213" cy="402"></circle><circle r="3" cx="386" cy="457"></circle><circle r="1" cx="484" cy="193"></circle><circle r="7" cx="740" cy="58"></circle><circle r="1" cx="398" cy="136"></circle><circle r="8" cx="623" cy="453"></circle><circle r="6" cx="566" cy="78"></circle><circle r="8" cx="7" cy="596"></circle><circle r="5" cx="406" cy="306"></circle><circle r="1" cx="742" cy="505"></circle><circle r="1" cx="524" cy="428"></circle><circle r="8" cx="177" cy="253"></circle><circle r="1" cx="741" cy="338"></circle><circle r="4" cx="345" cy="236"></circle><circle r="8" cx="847" cy="418"></circle><circle r="0" cx="238" cy="287"></circle><circle r="10" cx="671" cy="220"></circle><circle r="1" cx="381" cy="11"></circle><circle r="4" cx="139" cy="444"></circle><circle r="4" cx="298" cy="586"></circle><circle r="4" cx="542" cy="229"></circle><circle r="10" cx="350" cy="575"></circle><circle r="1" cx="42" cy="404"></circle><circle r="9" cx="898" cy="227"></circle><circle r="12" cx="420" cy="535"></circle><circle r="6" cx="558" cy="202"></circle><circle r="11" cx="170" cy="67"></circle><circle r="9" cx="160" cy="576"></circle><circle r="12" cx="204" cy="5"></circle><circle r="8" cx="712" cy="289"></circle><circle r="0" cx="845" cy="590"></circle><circle r="10" cx="309" cy="4"></circle><circle r="10" cx="640" cy="577"></circle><circle r="3" cx="54" cy="298"></circle><circle r="0" cx="449" cy="340"></circle><circle r="2" cx="647" cy="429"></circle><circle r="3" cx="737" cy="215"></circle><circle r="5" cx="127" cy="197"></circle><circle r="0" cx="405" cy="594"></circle><circle r="3" cx="49" cy="98"></circle><circle r="12" cx="274" cy="48"></circle><circle r="0" cx="678" cy="123"></circle><circle r="12" cx="767" cy="147"></circle><circle r="3" cx="23" cy="42"></circle><circle r="4" cx="575" cy="477"></circle><circle r="11" cx="821" cy="542"></circle><circle r="8" cx="394" cy="192"></circle><circle r="10" cx="703" cy="539"></circle><circle r="10" cx="630" cy="263"></circle><circle r="2" cx="26" cy="4"></circle><circle r="7" cx="896" cy="568"></circle><circle r="5" cx="443" cy="106"></circle><circle r="10" cx="182" cy="597"></circle><circle r="6" cx="301" cy="34"></circle><circle r="6" cx="597" cy="593"></circle><circle r="10" cx="700" cy="92"></circle><circle r="11" cx="358" cy="153"></circle><circle r="9" cx="325" cy="311"></circle><circle r="4" cx="561" cy="283"></circle><circle r="8" cx="132" cy="331"></circle><circle r="10" cx="2" cy="446"></circle><circle r="8" cx="841" cy="65"></circle><circle r="9" cx="654" cy="323"></circle><circle r="4" cx="78" cy="99"></circle><circle r="5" cx="211" cy="129"></circle><circle r="6" cx="897" cy="402"></circle><circle r="6" cx="31" cy="222"></circle><circle r="3" cx="74" cy="401"></circle><circle r="7" cx="820" cy="422"></circle><circle r="2" cx="442" cy="132"></circle><circle r="12" cx="289" cy="480"></circle><circle r="9" cx="800" cy="327"></circle><circle r="4" cx="338" cy="112"></circle><circle r="1" cx="779" cy="31"></circle><circle r="2" cx="68" cy="349"></circle><circle r="2" cx="239" cy="597"></circle><circle r="4" cx="898" cy="431"></circle><circle r="10" cx="58" cy="599"></circle><circle r="7" cx="3" cy="138"></circle><circle r="8" cx="367" cy="598"></circle><circle r="7" cx="671" cy="180"></circle><circle r="12" cx="587" cy="543"></circle><circle r="5" cx="76" cy="457"></circle><circle r="9" cx="1" cy="520"></circle></g></svg>