<svg id="visual" viewBox="0 0 960 540" width="960" height="540" xmlns="http://www.w3.org/2000/svg" xmlns:xlink="http://www.w3.org/1999/xlink" version="1.1"><rect x="0" y="0" width="960" height="540" fill="#092652"></rect><path d="M739 540L748.5 528.8C758 517.7 777 495.3 775.3 472.8C773.7 450.3 751.3 427.7 755.3 405.2C759.3 382.7 789.7 360.3 815.8 337.8C842 315.3 864 292.7 852.8 270.2C841.7 247.7 797.3 225.3 796.3 202.8C795.3 180.3 837.7 157.7 840 135.2C842.3 112.7 804.7 90.3 773.2 67.8C741.7 45.3 716.3 22.7 703.7 11.3L691 0L960 0L960 11.3C960 22.7 960 45.3 960 67.8C960 90.3 960 112.7 960 135.2C960 157.7 960 180.3 960 202.8C960 225.3 960 247.7 960 270.2C960 292.7 960 315.3 960 337.8C960 360.3 960 382.7 960 405.2C960 427.7 960 450.3 960 472.8C960 495.3 960 517.7 960 528.8L960 540Z" fill="#2a5172" stroke-linecap="round" stroke-linejoin="miter"></path></svg>